# xmcd CD database file generated by Grip 2.95
# 
# Track frame offsets:
#       150
#       15230
#       31907
#       54715
#       70960
#       84750
#       97517
#       116485
#       132432
#       146320
#       159590
# 
# Disc length: 2332 seconds
# 
# Revision: 3
# Processed by: cddbd v1.4b41PL1 Copyright (c) Steve Scherf et al.
# Submitted via: Grip 2.95
# 
DISCID=7c091a0b
DTITLE=Brooke Beasley - Downtown in Dallas
DYEAR=1900
DGENRE=
TTITLE0=Famous Last Words
TTITLE1=Sometimes You Gotta Dance
TTITLE2=I Was Just Wonderin'
TTITLE3=I've Been There
TTITLE4=Blues Ain't Workin' On Me
TTITLE5=Until It Came From You
TTITLE6=It Looked LIke Love
TTITLE7=You Don't Know Me
TTITLE8=How Nice
TTITLE9=Drivin' Through
TTITLE10=Write Your Name (Across My Heart)
EXTD=
EXTT0=
EXTT1=
EXTT2=
EXTT3=
EXTT4=
EXTT5=
EXTT6=
EXTT7=
EXTT8=
EXTT9=
EXTT10=
PLAYORDER=
